<?xml version="1.0" encoding="UTF-8"?>
<svg id="_图层_1" data-name="图层 1" xmlns="http://www.w3.org/2000/svg" viewBox="0 0 100 100">
  <defs>
    <style>
      .cls-1 {
        fill: none;
        stroke: #ffffff;
        stroke-miterlimit: 10;
        stroke-width: 5;
      }
    </style>
  </defs>
  <path class="cls-1" d="m35.96,21.67c1.36,9.37,2.73,18.85,2.3,28.35s-2.83,19.17-8.16,26.26"/>
  <path class="cls-1" d="m9.91,50.74c21.56-1.15,43.33,2.12,64.65-1.9,3.72-.7,7.63-1.76,10.32-4.9,2.81-3.29,3.72-8.21,4.2-12.87.42-4.04.61-8.11.81-12.17.16-3.32-.27-7.66-2.99-8.42-1.84-.51-3.6,1.07-4.87,2.74-5.72,7.51-7.52,18.13-7.94,28.25s.29,20.37-1.38,30.31c-.66,3.9-1.72,7.82-3.82,10.92-5.37,7.92-15.28,8.05-23.82,7.5"/>
</svg>